<?xml version="1.0" standalone="no"?>
<!DOCTYPE svg PUBLIC "-//W3C//DTD SVG 20010904//EN"
 "http://www.w3.org/TR/2001/REC-SVG-20010904/DTD/svg10.dtd">
<svg version="1.0" xmlns="http://www.w3.org/2000/svg"
 width="1366.000000pt" height="1366.000000pt" viewBox="0 0 1366.000000 1366.000000"
 preserveAspectRatio="xMidYMid meet">
<metadata>
Created by potrace 1.11, written by Peter Selinger 2001-2013
</metadata>
<g transform="translate(0.000000,1366.000000) scale(0.100000,-0.100000)"
fill="#000000" stroke="none">
<path d="M10325 6690 l0 -5710 152 0 152 0 0 5710 -1 5710 -151 0 -152 0 0
-5710z"/>
<path d="M3020 6670 l0 -5710 150 0 150 0 0 5710 0 5710 -150 0 -150 0 0
-5710z"/>
<path d="M6705 11283 c-387 -53 -669 -396 -648 -786 4 -71 34 -199 59 -254 46
-100 146 -228 230 -293 61 -49 164 -100 247 -124 l57 -17 0 -829 0 -830 -32 0
c-18 -1 -354 -1 -746 -1 l-713 0 3 -151 3 -150 743 0 742 -1 0 -2393 c0 -1908
-3 -2394 -12 -2395 -25 -3 -136 9 -218 22 -607 97 -1157 428 -1525 919 -146
195 -286 491 -336 713 -8 31 -16 58 -19 58 -18 4 -302 3 -305 -1 -2 -3 7 -50
20 -104 103 -422 313 -797 630 -1121 42 -43 221 -204 261 -235 781 -598 1818
-729 2721 -344 659 281 1175 815 1406 1454 41 112 77 241 91 325 l5 30 -153 0
-154 1 -17 -66 c-106 -399 -343 -785 -646 -1049 -227 -198 -352 -277 -684
-432 -37 -17 -229 -80 -306 -100 -79 -20 -88 -22 -179 -39 -30 -6 -64 -12 -76
-14 -11 -2 -56 -7 -99 -11 -43 -3 -83 -7 -89 -8 -8 -1 -11 689 -11 2393 l0
2395 752 0 c662 0 753 2 754 15 1 23 1 242 0 267 l-1 22 -727 0 c-401 0 -740
0 -754 1 l-27 0 0 822 c0 452 2 827 4 833 3 6 13 11 23 12 11 1 54 16 97 33
225 90 381 267 449 510 25 87 25 270 2 360 -39 147 -131 294 -246 393 -65 56
-210 130 -296 152 -59 16 -222 26 -280 18z m224 -319 c30 -9 77 -30 105 -48
200 -129 264 -372 156 -587 -84 -163 -302 -262 -487 -219 -118 28 -244 125
-295 230 -172 352 146 732 521 624z"/>
</g>
</svg>
