<svg id="Layer_1" data-name="Layer 1" xmlns="http://www.w3.org/2000/svg" viewBox="0 0 497 683"><defs><style>.cls-1{fill:#fff;}</style></defs><title>Artboard 4 copy 30</title><rect class="cls-1" x="423.27" y="63" width="15" height="570.99"/><rect class="cls-1" x="58" y="64.01" width="15" height="570.99"/><path class="cls-1" d="M254.56,530.3V290.62h75.52v-15H254.56V192.39a37.22,37.22,0,1,0-15,0v83.24H165.12v15h74.45V530.3c-52.47-3.25-95.78-40.2-105.46-86H118.67c10.46,56.28,64.27,101.22,128.39,101.22S365,500.62,375.45,444.33H360C350.34,490.1,307,527.06,254.56,530.3ZM224.83,155.92a22.23,22.23,0,1,1,22.23,22.23A22.25,22.25,0,0,1,224.83,155.92Z"/></svg>