<svg id="Layer_1" data-name="Layer 1" xmlns="http://www.w3.org/2000/svg" viewBox="0 0 915 359"><defs><style>.cls-1{fill:#fff;}</style></defs><title>Artboard 4 copy0</title><path class="cls-1" d="M287,152.68h8l10.33,28.63,3.91,10.9h.33l3.74-10.9,10.25-28.63h8V206H325.1V176.68q0-3.58.29-7.89t.61-7.89h-.33l-4.31,11.88-10.25,27.9h-3.82L297,172.77l-4.23-11.88h-.33q.24,3.58.57,7.89t.33,7.89V206H287Z"/><path class="cls-1" d="M374,207a21.59,21.59,0,0,1-9.23-2,20.54,20.54,0,0,1-7.2-5.57,26.09,26.09,0,0,1-4.68-8.79,37.61,37.61,0,0,1-1.67-11.59,36.84,36.84,0,0,1,1.67-11.51,25.31,25.31,0,0,1,4.68-8.62,20.11,20.11,0,0,1,7.2-5.41A22.39,22.39,0,0,1,374,151.7a22,22,0,0,1,9.23,1.91,20.94,20.94,0,0,1,7.24,5.45,25,25,0,0,1,4.72,8.62,36.59,36.59,0,0,1,1.67,11.43,37.64,37.64,0,0,1-1.67,11.59,25.71,25.71,0,0,1-4.72,8.79,20.94,20.94,0,0,1-7.24,5.57A21.59,21.59,0,0,1,374,207Zm0-5.94a13.49,13.49,0,0,0,6.47-1.55,14.53,14.53,0,0,0,5-4.43,22,22,0,0,0,3.21-6.92,33.35,33.35,0,0,0,1.14-9.07,32.58,32.58,0,0,0-1.14-8.95,20.59,20.59,0,0,0-3.21-6.75,14.64,14.64,0,0,0-5-4.27,14.65,14.65,0,0,0-12.93,0,14.63,14.63,0,0,0-5,4.27,20.55,20.55,0,0,0-3.21,6.75,32.55,32.55,0,0,0-1.14,8.95,33.31,33.31,0,0,0,1.14,9.07,22,22,0,0,0,3.21,6.92,14.51,14.51,0,0,0,5,4.43A13.48,13.48,0,0,0,374,201.08Z"/><path class="cls-1" d="M416.21,152.68H423v31.48a28.43,28.43,0,0,0,1,8.05,14.2,14.2,0,0,0,2.64,5.21,9.54,9.54,0,0,0,3.95,2.81,13.79,13.79,0,0,0,4.88.85,14,14,0,0,0,5-.85,9.85,9.85,0,0,0,4-2.81,13.85,13.85,0,0,0,2.68-5.21,28.43,28.43,0,0,0,1-8.05V152.68h6.51V184a34.54,34.54,0,0,1-1.46,10.82,19,19,0,0,1-4,7.12,14.61,14.61,0,0,1-6.06,3.91,23.58,23.58,0,0,1-7.57,1.18,23.94,23.94,0,0,1-7.61-1.18,14.56,14.56,0,0,1-6.1-3.91,19,19,0,0,1-4-7.12A34.54,34.54,0,0,1,416.21,184Z"/><path class="cls-1" d="M476.41,194.41a22.23,22.23,0,0,0,6.71,4.84,18.5,18.5,0,0,0,8,1.83q5.29,0,8.22-2.4a7.75,7.75,0,0,0,2.93-6.3,7.88,7.88,0,0,0-.69-3.46,7.57,7.57,0,0,0-1.87-2.44,13.6,13.6,0,0,0-2.81-1.83q-1.63-.81-3.5-1.71l-7.65-3.33a36.24,36.24,0,0,1-3.82-2,15.68,15.68,0,0,1-3.5-2.77,13.2,13.2,0,0,1-2.52-3.86,13.59,13.59,0,0,1,.29-10.78,13.77,13.77,0,0,1,3.5-4.51,16.26,16.26,0,0,1,5.29-3,20.4,20.4,0,0,1,6.71-1.06,21.35,21.35,0,0,1,8.87,1.83,22.26,22.26,0,0,1,6.92,4.76l-3.66,4.39a19,19,0,0,0-5.41-3.7,16.13,16.13,0,0,0-6.71-1.34,11.58,11.58,0,0,0-7.2,2.08,6.8,6.8,0,0,0-2.72,5.73,6.5,6.5,0,0,0,.77,3.29,8.12,8.12,0,0,0,2.07,2.36,16.77,16.77,0,0,0,2.85,1.79q1.54.77,3.17,1.42l7.57,3.25a32.61,32.61,0,0,1,4.31,2.24,15.52,15.52,0,0,1,3.5,2.93,12.76,12.76,0,0,1,2.32,3.91,14.43,14.43,0,0,1,.85,5.17,14.14,14.14,0,0,1-1.26,5.94,14.28,14.28,0,0,1-3.62,4.84,17.2,17.2,0,0,1-5.69,3.25,22.65,22.65,0,0,1-7.57,1.18,25.6,25.6,0,0,1-18.71-7.89Z"/><path class="cls-1" d="M526.85,194.41a22.23,22.23,0,0,0,6.71,4.84,18.5,18.5,0,0,0,8,1.83q5.29,0,8.22-2.4a7.75,7.75,0,0,0,2.93-6.3,7.88,7.88,0,0,0-.69-3.46,7.57,7.57,0,0,0-1.87-2.44,13.6,13.6,0,0,0-2.81-1.83q-1.63-.81-3.5-1.71l-7.65-3.33a36.24,36.24,0,0,1-3.82-2,15.68,15.68,0,0,1-3.5-2.77,13.2,13.2,0,0,1-2.52-3.86,13.59,13.59,0,0,1,.29-10.78,13.77,13.77,0,0,1,3.5-4.51,16.26,16.26,0,0,1,5.29-3,20.4,20.4,0,0,1,6.71-1.06,21.35,21.35,0,0,1,8.87,1.83,22.26,22.26,0,0,1,6.92,4.76l-3.66,4.39a19,19,0,0,0-5.41-3.7,16.13,16.13,0,0,0-6.71-1.34,11.58,11.58,0,0,0-7.2,2.08,6.8,6.8,0,0,0-2.72,5.73,6.5,6.5,0,0,0,.77,3.29,8.12,8.12,0,0,0,2.07,2.36,16.77,16.77,0,0,0,2.85,1.79q1.54.77,3.17,1.42l7.57,3.25a32.61,32.61,0,0,1,4.31,2.24,15.52,15.52,0,0,1,3.5,2.93,12.76,12.76,0,0,1,2.32,3.91,14.43,14.43,0,0,1,.85,5.17,14.14,14.14,0,0,1-1.26,5.94,14.28,14.28,0,0,1-3.62,4.84,17.2,17.2,0,0,1-5.69,3.25,22.65,22.65,0,0,1-7.57,1.18,25.6,25.6,0,0,1-18.71-7.89Z"/><path class="cls-1" d="M602.67,189.78H583.22L578.1,206h-6.92l18.06-53.37h7.65L614.95,206h-7.24ZM601,184.32l-2.52-8.13q-1.46-4.47-2.77-8.91t-2.6-9.07h-.33q-1.22,4.64-2.52,9.07t-2.77,8.91l-2.52,8.13Z"/><path class="cls-1" d="M630.65,152.68h6.75V206h-6.75Z"/><path class="cls-1" d="M660.18,152.68h6.75v47.59h23.35V206h-30.1Z"/><path class="cls-1" d="M707.85,152.68h6.75v47.59h23.35V206h-30.1Z"/><path class="cls-1" d="M773.09,207a21.59,21.59,0,0,1-9.23-2,20.54,20.54,0,0,1-7.2-5.57,26.09,26.09,0,0,1-4.68-8.79,37.61,37.61,0,0,1-1.67-11.59A36.84,36.84,0,0,1,752,167.61a25.31,25.31,0,0,1,4.68-8.62,20.11,20.11,0,0,1,7.2-5.41,22.39,22.39,0,0,1,9.23-1.87,22,22,0,0,1,9.23,1.91,20.94,20.94,0,0,1,7.24,5.45,25,25,0,0,1,4.72,8.62A36.59,36.59,0,0,1,796,179.12a37.64,37.64,0,0,1-1.67,11.59,25.71,25.71,0,0,1-4.72,8.79,20.94,20.94,0,0,1-7.24,5.57A21.59,21.59,0,0,1,773.09,207Zm0-5.94a13.49,13.49,0,0,0,6.47-1.55,14.53,14.53,0,0,0,5-4.43,22,22,0,0,0,3.21-6.92,33.35,33.35,0,0,0,1.14-9.07,32.58,32.58,0,0,0-1.14-8.95,20.59,20.59,0,0,0-3.21-6.75,14.64,14.64,0,0,0-5-4.27,14.65,14.65,0,0,0-12.93,0,14.63,14.63,0,0,0-5,4.27,20.55,20.55,0,0,0-3.21,6.75,32.55,32.55,0,0,0-1.14,8.95,33.31,33.31,0,0,0,1.14,9.07,22,22,0,0,0,3.21,6.92,14.51,14.51,0,0,0,5,4.43A13.48,13.48,0,0,0,773.09,201.08Z"/><path class="cls-1" d="M815.55,152.68h7l19.28,33.52,5.78,11.06h.33q-.24-4.07-.53-8.42t-.29-8.58V152.68h6.43V206h-7l-19.36-33.6-5.78-11h-.33q.32,4.07.61,8.26t.29,8.42V206h-6.43Z"/><path class="cls-1" d="M344.68,251.82c0,.09,0,.13-.07.13-.47,0-.83,0-1.1,0l-1.49,0-1.41,0c-.23,0-.56,0-1,0t0-.13,0-.13a3.74,3.74,0,0,0,1.11-.12.73.73,0,0,0,.48-.43,2.41,2.41,0,0,0,.08-1l-.4-10-5,11.6a.18.18,0,0,1-.18.09.27.27,0,0,1-.2-.09l-5.41-11.54-.2,9.3a2.46,2.46,0,0,0,.4,1.65,1.87,1.87,0,0,0,1.47.48s0,0,0,.13,0,.13,0,.13c-.41,0-.73,0-.95,0l-1.19,0-1.14,0c-.21,0-.5,0-.88,0,0,0-.07,0-.07-.13s0-.13.07-.13a1.66,1.66,0,0,0,1.34-.49,2.63,2.63,0,0,0,.44-1.64l.18-10.2a2.13,2.13,0,0,0-1.8-.88s-.07,0-.07-.13,0-.13.07-.13l.81,0,.59,0,.7,0,.42,0a.61.61,0,0,1,.47.21,4.77,4.77,0,0,1,.54.93l4.92,10.33L341,238.77q.24-.55.66-.55l.32,0,.54,0,1.05,0,.72,0s.07,0,.07.13,0,.13-.07.13a2.92,2.92,0,0,0-1.57.32,1.31,1.31,0,0,0-.45,1.2l.44,10.17a2.71,2.71,0,0,0,.17,1,.77.77,0,0,0,.52.42,4.67,4.67,0,0,0,1.21.11S344.68,251.73,344.68,251.82Z"/><path class="cls-1" d="M365,251.82c0,.09,0,.13-.11.13q-.44,0-1.27,0l-1.25,0q-.48,0-1.23,0l-1.1,0c-.06,0-.09,0-.09-.13s0-.13.09-.13a3.33,3.33,0,0,0,1.19-.15.54.54,0,0,0,.37-.53,2.64,2.64,0,0,0-.29-.94l-2.55-5.38h-4.13l-1.89,4.48a3.4,3.4,0,0,0-.31,1.23q0,1.3,2.15,1.3c.07,0,.11,0,.11.13s0,.13-.11.13q-.4,0-1.1,0t-1.49,0q-.57,0-1.32,0c-.44,0-.81,0-1.1,0-.07,0-.11,0-.11-.13s0-.13.11-.13a2.18,2.18,0,0,0,1-.23,2.38,2.38,0,0,0,.81-.81,10.73,10.73,0,0,0,.85-1.68L356.9,238s.06,0,.14-.05.13,0,.14.05l5.19,10.92a14.46,14.46,0,0,0,.91,1.7,2.74,2.74,0,0,0,.75.81,1.54,1.54,0,0,0,.85.23C364.95,251.69,365,251.73,365,251.82Zm-6.46-7.6-2-4.15-1.76,4.15Z"/><path class="cls-1" d="M374.52,252l-.78,0-1,0-1.49,0c-.26,0-.63,0-1.1,0,0,0,0,0,0-.13s0-.13,0-.13a5,5,0,0,0,1.23-.11.78.78,0,0,0,.54-.43,2.52,2.52,0,0,0,.14-1V240a2.42,2.42,0,0,0-.14-1,.81.81,0,0,0-.53-.43,4.42,4.42,0,0,0-1.22-.12s0,0,0-.13,0-.13,0-.13l1.1,0c.62,0,1.11,0,1.47,0q.83,0,1.65-.07l1.34,0a9,9,0,0,1,4.05.88,6.69,6.69,0,0,1,2.74,2.4,6.2,6.2,0,0,1,1,3.41,7.09,7.09,0,0,1-1,3.77,6.79,6.79,0,0,1-2.71,2.53A8,8,0,0,1,376,252Q375.36,252,374.52,252Zm4.38-1A5.21,5.21,0,0,0,381,248.8a7.26,7.26,0,0,0,.77-3.46,8.14,8.14,0,0,0-.72-3.47,5.91,5.91,0,0,0-2.05-2.46,5.41,5.41,0,0,0-3.11-.9,7.41,7.41,0,0,0-1.47.11,1.2,1.2,0,0,0-.75.44,1.67,1.67,0,0,0-.24,1v9.89a1.71,1.71,0,0,0,.48,1.37,3,3,0,0,0,1.87.41A6.4,6.4,0,0,0,378.91,251Z"/><path class="cls-1" d="M399.49,248.64a.19.19,0,0,1,.1,0s.06,0,.06.05a20.5,20.5,0,0,0-.2,2.9.28.28,0,0,1-.33.33h-9.21s-.07,0-.07-.13,0-.13.07-.13a4.81,4.81,0,0,0,1.22-.11.74.74,0,0,0,.52-.43,2.72,2.72,0,0,0,.13-1V240a2.62,2.62,0,0,0-.13-1,.77.77,0,0,0-.52-.43,4.42,4.42,0,0,0-1.22-.12s-.07,0-.07-.13,0-.13.07-.13h8.81a.17.17,0,0,1,.2.2l.07,2.73s0,0-.13,0-.13,0-.13,0a2.79,2.79,0,0,0-.72-1.81,2.27,2.27,0,0,0-1.69-.65H395a4.26,4.26,0,0,0-1.12.11.74.74,0,0,0-.5.41,2.37,2.37,0,0,0-.13.91v4.48h2.68a2.43,2.43,0,0,0,1.51-.36,1.45,1.45,0,0,0,.45-1.2s0,0,.13,0,.13,0,.13,0l0,1.78q0,.66,0,1l0,1s0,.07-.13.07-.13,0-.13-.07a1.77,1.77,0,0,0-.47-1.38,2.36,2.36,0,0,0-1.57-.42H393.2v5.05a2.3,2.3,0,0,0,.13.89.74.74,0,0,0,.49.41,4,4,0,0,0,1.09.11h1.76a2.33,2.33,0,0,0,1.75-.75,4,4,0,0,0,1-2.07S399.41,248.64,399.49,248.64Z"/><path class="cls-1" d="M419.18,251.16a.74.74,0,0,0,.52.42,4.82,4.82,0,0,0,1.22.11s.07,0,.07.13,0,.13-.07.13c-.44,0-.79,0-1.05,0l-1.56,0-1.49,0c-.26,0-.63,0-1.1,0,0,0-.07,0-.07-.13s0-.13.07-.13a4.82,4.82,0,0,0,1.22-.11.77.77,0,0,0,.53-.43,2.54,2.54,0,0,0,.14-1V240a2.44,2.44,0,0,0-.14-1,.81.81,0,0,0-.53-.43,4.42,4.42,0,0,0-1.22-.12s-.07,0-.07-.13,0-.13.07-.13l1.1,0c.62,0,1.11,0,1.49,0s1,0,1.58,0l1,0s.07,0,.07.13,0,.13-.07.13a4.11,4.11,0,0,0-1.21.13.81.81,0,0,0-.53.45,2.72,2.72,0,0,0-.13,1v10.13A2.7,2.7,0,0,0,419.18,251.16Z"/><path class="cls-1" d="M441.9,238.35c0,.09,0,.13-.07.13a1.64,1.64,0,0,0-1.34.51,2.55,2.55,0,0,0-.42,1.63V252.2s0,.07-.1.09a.15.15,0,0,1-.14,0L429.71,240l-.18-.22v9.76a2.65,2.65,0,0,0,.4,1.64,1.56,1.56,0,0,0,1.3.49s.07,0,.07.13,0,.13-.07.13c-.37,0-.64,0-.83,0l-1.1,0-1.12,0c-.21,0-.5,0-.9,0,0,0-.07,0-.07-.13s0-.13.07-.13a1.62,1.62,0,0,0,1.34-.49,2.65,2.65,0,0,0,.4-1.64V239.27a3,3,0,0,0-.88-.62,2.19,2.19,0,0,0-.86-.18s-.07,0-.07-.13,0-.13.07-.13l.81,0,.73,0,.79,0,.48,0a.35.35,0,0,1,.24.08,1.93,1.93,0,0,1,.26.34,7,7,0,0,0,.5.73l8.48,10.37v-9.12a2.71,2.71,0,0,0-.38-1.63,1.51,1.51,0,0,0-1.29-.51s0,0,0-.13,0-.13,0-.13l.86,0c.44,0,.8,0,1.08,0s.63,0,1.1,0l.9,0S441.9,238.26,441.9,238.35Z"/><path class="cls-1" d="M458.35,239.32a4.46,4.46,0,0,0-1,2.4s-.06,0-.14,0-.12,0-.12-.07q.09-.59.2-1.92t.11-2c0-.07,0-.11.13-.11s.13,0,.13.11q0,.48,1.17.48,1.87.07,4.42.07,1.32,0,2.77,0l1.47,0a4.58,4.58,0,0,0,1.18-.11.67.67,0,0,0,.49-.44.12.12,0,0,1,.13-.09c.07,0,.11,0,.11.09q-.07.62-.13,1.92t-.07,2.1s0,.07-.12.07-.13,0-.14-.07a3.73,3.73,0,0,0-.7-2.38,2.76,2.76,0,0,0-2.11-.69,7.74,7.74,0,0,0-1.41.09.79.79,0,0,0-.57.37,2.19,2.19,0,0,0-.15,1v10.13a2.35,2.35,0,0,0,.15,1,.84.84,0,0,0,.59.42,6.19,6.19,0,0,0,1.38.11s.07,0,.07.13,0,.13-.07.13q-.75,0-1.16,0l-1.71,0-1.65,0q-.44,0-1.21,0s0,0,0-.13,0-.13,0-.13a6.21,6.21,0,0,0,1.38-.11.87.87,0,0,0,.6-.43,2.22,2.22,0,0,0,.17-1V240a2.13,2.13,0,0,0-.15-1,.77.77,0,0,0-.57-.35,8.78,8.78,0,0,0-1.41-.08A2.79,2.79,0,0,0,458.35,239.32Z"/><path class="cls-1" d="M490.54,251.82c0,.09,0,.13,0,.13-.47,0-.84,0-1.1,0l-1.54,0-1.58,0c-.26,0-.62,0-1.05,0,0,0-.07,0-.07-.13s0-.13.07-.13a5.07,5.07,0,0,0,1.25-.11.78.78,0,0,0,.54-.43,2.54,2.54,0,0,0,.14-1V245h-8.44v5.14a2.52,2.52,0,0,0,.14,1,.77.77,0,0,0,.54.43,5.08,5.08,0,0,0,1.25.11s.07,0,.07.13,0,.13-.07.13c-.46,0-.81,0-1.08,0l-1.58,0-1.52,0-1.1,0s0,0,0-.13,0-.13,0-.13a5.09,5.09,0,0,0,1.24-.11.78.78,0,0,0,.55-.43,2.54,2.54,0,0,0,.14-1V240a2.44,2.44,0,0,0-.14-1,.82.82,0,0,0-.54-.43,4.54,4.54,0,0,0-1.23-.12s0,0,0-.13,0-.13,0-.13l1.1,0c.62,0,1.11,0,1.5,0s1,0,1.6,0l1.06,0s.07,0,.07.13,0,.13-.07.13a4.33,4.33,0,0,0-1.24.13.84.84,0,0,0-.55.45,2.52,2.52,0,0,0-.14,1v4.55h8.44V240a2.54,2.54,0,0,0-.14-1,.85.85,0,0,0-.54-.45,4.3,4.3,0,0,0-1.25-.13s-.07,0-.07-.13,0-.13.07-.13l1.05,0c.64,0,1.17,0,1.58,0s.89,0,1.54,0l1.1,0s0,0,0,.13,0,.13,0,.13a4.68,4.68,0,0,0-1.24.12.82.82,0,0,0-.55.43,2.44,2.44,0,0,0-.14,1v10.17a2.54,2.54,0,0,0,.14,1,.78.78,0,0,0,.55.43,5.1,5.1,0,0,0,1.24.11S490.54,251.73,490.54,251.82Z"/><path class="cls-1" d="M506.23,248.64a.19.19,0,0,1,.1,0s.06,0,.06.05a20.5,20.5,0,0,0-.2,2.9.28.28,0,0,1-.33.33h-9.21s-.07,0-.07-.13,0-.13.07-.13a4.81,4.81,0,0,0,1.22-.11.74.74,0,0,0,.52-.43,2.72,2.72,0,0,0,.13-1V240a2.62,2.62,0,0,0-.13-1,.77.77,0,0,0-.52-.43,4.42,4.42,0,0,0-1.22-.12s-.07,0-.07-.13,0-.13.07-.13h8.81a.17.17,0,0,1,.2.2l.07,2.73s0,0-.13,0-.13,0-.13,0a2.79,2.79,0,0,0-.72-1.81,2.27,2.27,0,0,0-1.69-.65H501.7a4.26,4.26,0,0,0-1.12.11.74.74,0,0,0-.5.41,2.37,2.37,0,0,0-.13.91v4.48h2.68a2.43,2.43,0,0,0,1.51-.36,1.45,1.45,0,0,0,.45-1.2s0,0,.13,0,.13,0,.13,0l0,1.78q0,.66,0,1l0,1s0,.07-.13.07-.13,0-.13-.07a1.77,1.77,0,0,0-.47-1.38,2.36,2.36,0,0,0-1.57-.42h-2.62v5.05a2.3,2.3,0,0,0,.13.89.74.74,0,0,0,.49.41,4,4,0,0,0,1.09.11h1.76a2.33,2.33,0,0,0,1.75-.75,4,4,0,0,0,1-2.07S506.15,248.64,506.23,248.64Z"/><path class="cls-1" d="M535.57,251.82c0,.09,0,.13-.07.13h-3.09q-.45,0-1.26-1.12t-1.56-2.08l-3.36-4.24-.72.7v4.94a2.7,2.7,0,0,0,.13,1,.74.74,0,0,0,.52.42,4.81,4.81,0,0,0,1.22.11s.07,0,.07.13,0,.13-.07.13c-.44,0-.79,0-1.06,0l-1.54,0-1.49,0c-.26,0-.63,0-1.1,0,0,0,0,0,0-.13s0-.13,0-.13a5,5,0,0,0,1.23-.11.78.78,0,0,0,.54-.43,2.52,2.52,0,0,0,.14-1V240a2.42,2.42,0,0,0-.14-1,.81.81,0,0,0-.53-.43,4.42,4.42,0,0,0-1.22-.12s0,0,0-.13,0-.13,0-.13l1.1,0c.62,0,1.11,0,1.47,0s.95,0,1.56,0l1,0s.07,0,.07.13,0,.13-.07.13a4,4,0,0,0-1.2.13.84.84,0,0,0-.53.45,2.52,2.52,0,0,0-.14,1v4.66l4.7-4.7q.73-.73.72-1.08t-1.3-.44s0,0,0-.13,0-.13,0-.13l.94,0c.59,0,1.12,0,1.6,0s1,0,1.52,0l.83,0s0,0,0,.13,0,.13,0,.13a5.3,5.3,0,0,0-1.93.4,5.66,5.66,0,0,0-1.89,1.25l-3.47,3.41,3.16,4.07a35.89,35.89,0,0,0,2.45,2.92,4.08,4.08,0,0,0,1.31,1,4.44,4.44,0,0,0,1.34.15S535.57,251.73,535.57,251.82Z"/><path class="cls-1" d="M544.6,251.16a.74.74,0,0,0,.52.42,4.82,4.82,0,0,0,1.22.11s.07,0,.07.13,0,.13-.07.13c-.44,0-.79,0-1.05,0l-1.56,0-1.49,0c-.26,0-.63,0-1.1,0,0,0-.07,0-.07-.13s0-.13.07-.13a4.82,4.82,0,0,0,1.22-.11.77.77,0,0,0,.53-.43,2.54,2.54,0,0,0,.14-1V240a2.44,2.44,0,0,0-.14-1,.81.81,0,0,0-.53-.43,4.42,4.42,0,0,0-1.22-.12s-.07,0-.07-.13,0-.13.07-.13l1.1,0c.62,0,1.11,0,1.49,0s1,0,1.58,0l1,0s.07,0,.07.13,0,.13-.07.13a4.11,4.11,0,0,0-1.21.13.81.81,0,0,0-.53.45,2.72,2.72,0,0,0-.13,1v10.13A2.7,2.7,0,0,0,544.6,251.16Z"/><path class="cls-1" d="M567.32,238.35c0,.09,0,.13-.07.13a1.64,1.64,0,0,0-1.34.51,2.55,2.55,0,0,0-.42,1.63V252.2s0,.07-.1.09a.15.15,0,0,1-.14,0L555.13,240l-.18-.22v9.76a2.65,2.65,0,0,0,.4,1.64,1.56,1.56,0,0,0,1.3.49s.07,0,.07.13,0,.13-.07.13c-.37,0-.64,0-.83,0l-1.1,0-1.12,0c-.21,0-.5,0-.9,0,0,0-.07,0-.07-.13s0-.13.07-.13a1.62,1.62,0,0,0,1.34-.49,2.65,2.65,0,0,0,.4-1.64V239.27a3,3,0,0,0-.88-.62,2.19,2.19,0,0,0-.86-.18s-.07,0-.07-.13,0-.13.07-.13l.81,0,.73,0,.79,0,.48,0a.35.35,0,0,1,.24.08,1.93,1.93,0,0,1,.26.34,7,7,0,0,0,.5.73L565,249.73v-9.12a2.71,2.71,0,0,0-.38-1.63,1.51,1.51,0,0,0-1.29-.51s0,0,0-.13,0-.13,0-.13l.86,0c.44,0,.8,0,1.08,0s.63,0,1.1,0l.9,0S567.32,238.26,567.32,238.35Z"/><path class="cls-1" d="M576.92,251.25a6.87,6.87,0,0,1-2.74-2.62,7.09,7.09,0,0,1-1-3.63,6.5,6.5,0,0,1,1.08-3.73,7,7,0,0,1,3-2.45,10,10,0,0,1,4.21-.86,10.41,10.41,0,0,1,2.2.22,5.44,5.44,0,0,1,1.69.64.48.48,0,0,1,.21.15,1.2,1.2,0,0,1,.05.33l.26,2.59s0,.07-.12.08-.13,0-.14-.05a4.39,4.39,0,0,0-4.57-3.6,6.31,6.31,0,0,0-3.13.78,5.62,5.62,0,0,0-2.2,2.22,6.77,6.77,0,0,0-.8,3.35,8.22,8.22,0,0,0,.77,3.52,6.43,6.43,0,0,0,2.3,2.67,6.5,6.5,0,0,0,3.7,1,3.25,3.25,0,0,0,2.22-.59,2.78,2.78,0,0,0,.64-2.09,6,6,0,0,0-.14-1.59.9.9,0,0,0-.64-.6,6.47,6.47,0,0,0-1.7-.15c-.1,0-.15-.07-.15-.2a.2.2,0,0,1,0-.1.09.09,0,0,1,.08-.05q1.72.11,2.79.11t2.15-.07a.09.09,0,0,1,.08.05.2.2,0,0,1,0,.1c0,.1,0,.15-.11.15a1.2,1.2,0,0,0-.76.14,1,1,0,0,0-.27.66,15.78,15.78,0,0,0-.07,1.77,8.68,8.68,0,0,0,.08,1.4,3.65,3.65,0,0,1,.08.54.25.25,0,0,1,0,.18.51.51,0,0,1-.22.09,21.85,21.85,0,0,1-4.64.59A8.67,8.67,0,0,1,576.92,251.25Z"/><path class="cls-1" d="M597.38,252l-.78,0-1,0-1.49,0c-.26,0-.63,0-1.1,0,0,0,0,0,0-.13s0-.13,0-.13a5,5,0,0,0,1.23-.11.78.78,0,0,0,.54-.43,2.52,2.52,0,0,0,.14-1V240a2.42,2.42,0,0,0-.14-1,.81.81,0,0,0-.53-.43,4.42,4.42,0,0,0-1.22-.12s0,0,0-.13,0-.13,0-.13l1.1,0c.62,0,1.11,0,1.47,0q.83,0,1.65-.07l1.34,0a9,9,0,0,1,4.05.88,6.69,6.69,0,0,1,2.74,2.4,6.2,6.2,0,0,1,1,3.41,7.09,7.09,0,0,1-1,3.77,6.79,6.79,0,0,1-2.71,2.53,8,8,0,0,1-3.74.89Q598.22,252,597.38,252Zm4.38-1a5.21,5.21,0,0,0,2.12-2.18,7.26,7.26,0,0,0,.77-3.46,8.14,8.14,0,0,0-.72-3.47,5.91,5.91,0,0,0-2.05-2.46,5.41,5.41,0,0,0-3.11-.9,7.41,7.41,0,0,0-1.47.11,1.2,1.2,0,0,0-.75.44,1.67,1.67,0,0,0-.24,1v9.89a1.71,1.71,0,0,0,.48,1.37,3,3,0,0,0,1.87.41A6.4,6.4,0,0,0,601.77,251Z"/><path class="cls-1" d="M616.21,251.26a6.55,6.55,0,0,1-2.46-2.59,7.5,7.5,0,0,1-.87-3.57,6.54,6.54,0,0,1,1.14-3.88,7.16,7.16,0,0,1,2.93-2.43,8.77,8.77,0,0,1,3.66-.81,6.83,6.83,0,0,1,3.67,1,6.62,6.62,0,0,1,2.43,2.58,7.21,7.21,0,0,1,.85,3.41,6.74,6.74,0,0,1-1.06,3.67,7.58,7.58,0,0,1-2.82,2.64,7.87,7.87,0,0,1-3.83,1A6.93,6.93,0,0,1,616.21,251.26Zm7.1-.23a5,5,0,0,0,1.89-2.13,7.48,7.48,0,0,0,.69-3.34,8.52,8.52,0,0,0-.76-3.66,5.76,5.76,0,0,0-5.42-3.42,4.78,4.78,0,0,0-3.8,1.56,6.29,6.29,0,0,0-1.36,4.29,9,9,0,0,0,.77,3.77,6.44,6.44,0,0,0,2.15,2.68,5.35,5.35,0,0,0,3.17,1A5.06,5.06,0,0,0,623.31,251Z"/><path class="cls-1" d="M650.94,251.82c0,.09,0,.13-.07.13-.47,0-.83,0-1.1,0l-1.49,0-1.41,0c-.23,0-.56,0-1,0t0-.13,0-.13a3.74,3.74,0,0,0,1.11-.12.73.73,0,0,0,.48-.43,2.41,2.41,0,0,0,.08-1l-.4-10-5,11.6a.18.18,0,0,1-.18.09.27.27,0,0,1-.2-.09l-5.41-11.54-.2,9.3a2.46,2.46,0,0,0,.4,1.65,1.87,1.87,0,0,0,1.47.48s0,0,0,.13,0,.13,0,.13c-.41,0-.73,0-.95,0l-1.19,0-1.14,0c-.21,0-.5,0-.88,0,0,0-.07,0-.07-.13s0-.13.07-.13a1.66,1.66,0,0,0,1.34-.49,2.63,2.63,0,0,0,.44-1.64l.18-10.2a2.13,2.13,0,0,0-1.8-.88s-.07,0-.07-.13,0-.13.07-.13l.81,0,.59,0,.7,0,.42,0a.61.61,0,0,1,.47.21,4.77,4.77,0,0,1,.54.93l4.92,10.33,4.77-10.92q.24-.55.66-.55l.32,0,.54,0,1.05,0,.72,0s.07,0,.07.13,0,.13-.07.13a2.92,2.92,0,0,0-1.57.32,1.31,1.31,0,0,0-.45,1.2l.44,10.17a2.71,2.71,0,0,0,.17,1,.77.77,0,0,0,.52.42,4.67,4.67,0,0,0,1.21.11S650.94,251.73,650.94,251.82Z"/><path class="cls-1" d="M669.74,251.26a6.55,6.55,0,0,1-2.46-2.59,7.5,7.5,0,0,1-.87-3.57,6.54,6.54,0,0,1,1.14-3.88,7.16,7.16,0,0,1,2.93-2.43,8.77,8.77,0,0,1,3.66-.81,6.83,6.83,0,0,1,3.67,1,6.62,6.62,0,0,1,2.43,2.58,7.21,7.21,0,0,1,.85,3.41,6.74,6.74,0,0,1-1.06,3.67,7.58,7.58,0,0,1-2.82,2.64,7.87,7.87,0,0,1-3.83,1A6.93,6.93,0,0,1,669.74,251.26Zm7.1-.23a5,5,0,0,0,1.89-2.13,7.48,7.48,0,0,0,.69-3.34,8.52,8.52,0,0,0-.76-3.66,5.76,5.76,0,0,0-5.42-3.42,4.78,4.78,0,0,0-3.8,1.56,6.29,6.29,0,0,0-1.36,4.29,9,9,0,0,0,.77,3.77,6.44,6.44,0,0,0,2.15,2.68,5.35,5.35,0,0,0,3.17,1A5.06,5.06,0,0,0,676.84,251Z"/><path class="cls-1" d="M696.61,241.14s0,0-.13,0-.13,0-.13,0a2.79,2.79,0,0,0-.72-1.81,2.27,2.27,0,0,0-1.69-.65h-1.34a4.14,4.14,0,0,0-1.1.11.79.79,0,0,0-.52.4,1.92,1.92,0,0,0-.14.83v4.81H693a2.93,2.93,0,0,0,1.67-.36,1.35,1.35,0,0,0,.51-1.18s0-.07.12-.07.12,0,.12.07l0,1.78q0,.64,0,1l0,1.06s0,.07-.12.07-.12,0-.12-.07a1.66,1.66,0,0,0-.53-1.38,2.82,2.82,0,0,0-1.74-.42h-2.15v4.79a2.11,2.11,0,0,0,.19,1,1.1,1.1,0,0,0,.74.45,8.19,8.19,0,0,0,1.74.13s0,0,0,.13,0,.13,0,.13c-.6,0-1.07,0-1.41,0l-2,0-1.49,0c-.26,0-.64,0-1.12,0t0-.13,0-.13a5,5,0,0,0,1.23-.11.78.78,0,0,0,.54-.43,2.54,2.54,0,0,0,.14-1V240a2.62,2.62,0,0,0-.13-1,.77.77,0,0,0-.52-.43,4.42,4.42,0,0,0-1.22-.12s-.07,0-.07-.13,0-.13.07-.13h8.81a.17.17,0,0,1,.2.2Z"/><path class="cls-1" d="M721.82,245.37a3.39,3.39,0,0,1,1.05,2.54,4,4,0,0,1-.57,2.11,4,4,0,0,1-1.57,1.48,4.64,4.64,0,0,1-2.23.54q-.73,0-1.56-.07l-.73,0-.94,0-1.5,0c-.26,0-.63,0-1.1,0,0,0-.07,0-.07-.13s0-.13.07-.13a4.83,4.83,0,0,0,1.21-.11.77.77,0,0,0,.54-.43,2.52,2.52,0,0,0,.14-1V240a2.42,2.42,0,0,0-.14-1,.81.81,0,0,0-.53-.43,4.3,4.3,0,0,0-1.2-.12s-.07,0-.07-.13,0-.13.07-.13l1.08,0c.62,0,1.11,0,1.5,0l.74,0,.6,0q.66-.07,1.25-.07a4.07,4.07,0,0,1,2.76.8,2.66,2.66,0,0,1,.91,2.1,2.87,2.87,0,0,1-.68,1.88,4.48,4.48,0,0,1-1.85,1.29A4.36,4.36,0,0,1,721.82,245.37Zm-5.29-6.79a.7.7,0,0,0-.41.42,3,3,0,0,0-.13,1v4.18l1,0a3.06,3.06,0,0,0,2.36-.82,3.1,3.1,0,0,0,.76-2.19,2.91,2.91,0,0,0-.66-2,2.62,2.62,0,0,0-2.07-.75A2.69,2.69,0,0,0,716.53,238.58Zm4.8,9.86a3.73,3.73,0,0,0-1-2.69,3.61,3.61,0,0,0-2.69-1q-.53,0-1.67,0v5.45a1.9,1.9,0,0,0,.17.88,1,1,0,0,0,.63.45,5,5,0,0,0,1.38.14Q721.33,251.65,721.33,248.44Z"/><path class="cls-1" d="M738.92,248.64a.19.19,0,0,1,.1,0s.06,0,.06.05a20.5,20.5,0,0,0-.2,2.9.28.28,0,0,1-.33.33h-9.21s-.07,0-.07-.13,0-.13.07-.13a4.81,4.81,0,0,0,1.22-.11.74.74,0,0,0,.52-.43,2.72,2.72,0,0,0,.13-1V240a2.62,2.62,0,0,0-.13-1,.77.77,0,0,0-.52-.43,4.42,4.42,0,0,0-1.22-.12s-.07,0-.07-.13,0-.13.07-.13h8.81a.17.17,0,0,1,.2.2l.07,2.73s0,0-.13,0-.13,0-.13,0a2.79,2.79,0,0,0-.72-1.81,2.27,2.27,0,0,0-1.69-.65h-1.34a4.26,4.26,0,0,0-1.12.11.74.74,0,0,0-.5.41,2.37,2.37,0,0,0-.13.91v4.48h2.68a2.43,2.43,0,0,0,1.51-.36,1.45,1.45,0,0,0,.45-1.2s0,0,.13,0,.13,0,.13,0l0,1.78q0,.66,0,1l0,1s0,.07-.13.07-.13,0-.13-.07a1.77,1.77,0,0,0-.47-1.38,2.36,2.36,0,0,0-1.57-.42h-2.62v5.05a2.3,2.3,0,0,0,.13.89.74.74,0,0,0,.49.41,4,4,0,0,0,1.09.11h1.76a2.33,2.33,0,0,0,1.75-.75,4,4,0,0,0,1-2.07S738.84,248.64,738.92,248.64Z"/><path class="cls-1" d="M748.63,250.09a2.29,2.29,0,0,0,.13.9.75.75,0,0,0,.5.4,4.35,4.35,0,0,0,1.15.11h2.37a2.68,2.68,0,0,0,2-.78,3.87,3.87,0,0,0,1-2.14s0,0,.09,0l.12,0s.05,0,.05.07a22.6,22.6,0,0,0-.22,3,.39.39,0,0,1-.07.25.34.34,0,0,1-.26.08H745.33s0,0,0-.13,0-.13,0-.13a4.82,4.82,0,0,0,1.22-.11.74.74,0,0,0,.52-.43,2.72,2.72,0,0,0,.13-1V240a2.62,2.62,0,0,0-.13-1,.77.77,0,0,0-.52-.43,4.42,4.42,0,0,0-1.22-.12s0,0,0-.13,0-.13,0-.13l1.08,0c.62,0,1.11,0,1.5,0s.94,0,1.56,0l1,0s.07,0,.07.13,0,.13-.07.13a4.44,4.44,0,0,0-1.21.12.77.77,0,0,0-.53.44,2.71,2.71,0,0,0-.13,1Z"/><path class="cls-1" d="M765.44,251.25a6.87,6.87,0,0,1-2.74-2.62,7.09,7.09,0,0,1-1-3.63,6.5,6.5,0,0,1,1.08-3.73,7,7,0,0,1,3-2.45A10,10,0,0,1,770,238a10.41,10.41,0,0,1,2.2.22,5.44,5.44,0,0,1,1.69.64.48.48,0,0,1,.21.15,1.2,1.2,0,0,1,.05.33l.26,2.59s0,.07-.12.08-.13,0-.14-.05a4.39,4.39,0,0,0-4.57-3.6,6.31,6.31,0,0,0-3.13.78,5.62,5.62,0,0,0-2.2,2.22,6.77,6.77,0,0,0-.8,3.35,8.22,8.22,0,0,0,.77,3.52,6.43,6.43,0,0,0,2.3,2.67,6.5,6.5,0,0,0,3.7,1,3.25,3.25,0,0,0,2.22-.59,2.78,2.78,0,0,0,.64-2.09,6,6,0,0,0-.14-1.59.9.9,0,0,0-.64-.6,6.47,6.47,0,0,0-1.7-.15c-.1,0-.15-.07-.15-.2a.2.2,0,0,1,0-.1.09.09,0,0,1,.08-.05q1.72.11,2.79.11t2.15-.07a.09.09,0,0,1,.08.05.2.2,0,0,1,0,.1c0,.1,0,.15-.11.15a1.2,1.2,0,0,0-.76.14,1,1,0,0,0-.27.66,15.78,15.78,0,0,0-.07,1.77,8.68,8.68,0,0,0,.08,1.4,3.65,3.65,0,0,1,.08.54.25.25,0,0,1,0,.18.51.51,0,0,1-.22.09,21.85,21.85,0,0,1-4.64.59A8.67,8.67,0,0,1,765.44,251.25Z"/><path class="cls-1" d="M785.24,251.16a.74.74,0,0,0,.52.42,4.82,4.82,0,0,0,1.22.11s.07,0,.07.13,0,.13-.07.13c-.44,0-.79,0-1.05,0l-1.56,0-1.49,0c-.26,0-.63,0-1.1,0,0,0-.07,0-.07-.13s0-.13.07-.13a4.82,4.82,0,0,0,1.22-.11.77.77,0,0,0,.53-.43,2.54,2.54,0,0,0,.14-1V240a2.44,2.44,0,0,0-.14-1,.81.81,0,0,0-.53-.43,4.42,4.42,0,0,0-1.22-.12s-.07,0-.07-.13,0-.13.07-.13l1.1,0c.62,0,1.11,0,1.49,0s1,0,1.58,0l1,0s.07,0,.07.13,0,.13-.07.13a4.11,4.11,0,0,0-1.21.13.81.81,0,0,0-.53.45,2.72,2.72,0,0,0-.13,1v10.13A2.7,2.7,0,0,0,785.24,251.16Z"/><path class="cls-1" d="M803.09,238.48s-.07,0-.07-.13,0-.13.07-.13l1,0c.5,0,.9,0,1.21,0s.62,0,1.12,0l.9,0s0,0,0,.13,0,.13,0,.13q-1.76,0-1.76,2.13v6.26a5.36,5.36,0,0,1-1.41,3.94,5.08,5.08,0,0,1-3.78,1.42,6.06,6.06,0,0,1-2.85-.64,4.55,4.55,0,0,1-1.89-1.81,5.47,5.47,0,0,1-.67-2.76v-7a2.62,2.62,0,0,0-.13-1,.77.77,0,0,0-.52-.43,4.42,4.42,0,0,0-1.22-.12s-.07,0-.07-.13,0-.13.07-.13l1.08,0c.62,0,1.11,0,1.5,0s.92,0,1.54,0l1.05,0s.07,0,.07.13,0,.13-.07.13a4.1,4.1,0,0,0-1.21.13.81.81,0,0,0-.53.45,2.72,2.72,0,0,0-.13,1v6.22a5.89,5.89,0,0,0,1.17,3.93,4.1,4.1,0,0,0,3.3,1.36,3.92,3.92,0,0,0,3.07-1.23A4.94,4.94,0,0,0,805,246.9v-6.29Q805,238.48,803.09,238.48Z"/><path class="cls-1" d="M830.07,251.82c0,.09,0,.13-.07.13-.47,0-.83,0-1.1,0l-1.49,0-1.41,0c-.23,0-.56,0-1,0t0-.13,0-.13a3.74,3.74,0,0,0,1.11-.12.73.73,0,0,0,.48-.43,2.41,2.41,0,0,0,.08-1l-.4-10-5,11.6a.18.18,0,0,1-.18.09.27.27,0,0,1-.2-.09l-5.41-11.54-.2,9.3a2.46,2.46,0,0,0,.4,1.65,1.87,1.87,0,0,0,1.47.48s0,0,0,.13,0,.13,0,.13c-.41,0-.73,0-.95,0l-1.19,0-1.14,0c-.21,0-.5,0-.88,0,0,0-.07,0-.07-.13s0-.13.07-.13a1.66,1.66,0,0,0,1.34-.49,2.63,2.63,0,0,0,.44-1.64l.18-10.2a2.13,2.13,0,0,0-1.8-.88s-.07,0-.07-.13,0-.13.07-.13l.81,0,.59,0,.7,0,.42,0a.61.61,0,0,1,.47.21,4.77,4.77,0,0,1,.54.93l4.92,10.33,4.77-10.92q.24-.55.66-.55l.32,0,.54,0,1.05,0,.72,0s.07,0,.07.13,0,.13-.07.13a2.92,2.92,0,0,0-1.57.32,1.31,1.31,0,0,0-.45,1.2l.44,10.17a2.71,2.71,0,0,0,.17,1,.77.77,0,0,0,.52.42,4.67,4.67,0,0,0,1.21.11S830.07,251.73,830.07,251.82Z"/><rect class="cls-1" x="220.34" y="56.79" width="6.66" height="253.76"/><rect class="cls-1" x="58" y="57.24" width="6.66" height="253.76"/><path class="cls-1" d="M145.36,264.47V157.95h33.56v-6.66H145.36v-37a16.54,16.54,0,1,0-6.66,0v37H105.61v6.66h33.09V264.47C115.37,263,96.12,246.6,91.82,226.26H85c4.65,25,28.57,45,57.06,45s52.41-20,57.06-45h-6.86C187.92,246.6,168.67,263,145.36,264.47ZM132.15,98.08A9.88,9.88,0,1,1,142,108,9.89,9.89,0,0,1,132.15,98.08Z"/></svg>